<svg xmlns="http://www.w3.org/2000/svg" xmlns:xlink="http://www.w3.org/1999/xlink" contentStyleType="text/css" height="357px" preserveAspectRatio="none" style="width:114px;height:357px;background:#FFFFFF;" version="1.1" viewBox="0 0 114 357" width="114px" zoomAndPan="magnify"><defs/><g><!--entity routes--><g id="elem_routes"><rect fill="#F1F1F1" height="36.2969" rx="2.5" ry="2.5" style="stroke:#181818;stroke-width:0.5;" width="68.5625" x="20" y="7"/><text fill="#000000" font-family="sans-serif" font-size="14" lengthAdjust="spacing" textLength="48.5625" x="30" y="29.9951">Routes</text></g><!--entity service--><g id="elem_service"><rect fill="#F1F1F1" height="36.2969" rx="2.5" ry="2.5" style="stroke:#181818;stroke-width:0.5;" width="71.7412" x="18.5" y="103"/><text fill="#000000" font-family="sans-serif" font-size="14" lengthAdjust="spacing" textLength="51.7412" x="28.5" y="125.9951">Service</text></g><!--entity repository--><g id="elem_repository"><rect fill="#F1F1F1" height="36.2969" rx="2.5" ry="2.5" style="stroke:#181818;stroke-width:0.5;" width="95.0723" x="7" y="199"/><text fill="#000000" font-family="sans-serif" font-size="14" lengthAdjust="spacing" textLength="75.0723" x="17" y="221.9951">Repository</text></g><!--entity database--><g id="elem_database"><path d="M11,305 C11,295 54.4004,295 54.4004,295 C54.4004,295 97.8008,295 97.8008,305 L97.8008,330.2969 C97.8008,340.2969 54.4004,340.2969 54.4004,340.2969 C54.4004,340.2969 11,340.2969 11,330.2969 L11,305 " fill="#F1F1F1" style="stroke:#181818;stroke-width:0.5;"/><path d="M11,305 C11,315 54.4004,315 54.4004,315 C54.4004,315 97.8008,315 97.8008,305 " fill="none" style="stroke:#181818;stroke-width:0.5;"/><text fill="#000000" font-family="sans-serif" font-size="14" lengthAdjust="spacing" textLength="66.8008" x="21" y="331.9951">Database</text></g><!--link routes to service--><g id="link_routes_service"><path d="M54.5,43.24 C54.5,60.2 54.5,79.95 54.5,96.87 " fill="none" id="routes-to-service" style="stroke:#181818;stroke-width:1.0;"/><polygon fill="#181818" points="54.5,102.87,58.5,93.87,54.5,97.87,50.5,93.87,54.5,102.87" style="stroke:#181818;stroke-width:1.0;"/></g><!--link service to repository--><g id="link_service_repository"><path d="M54.5,139.24 C54.5,156.2 54.5,175.95 54.5,192.87 " fill="none" id="service-to-repository" style="stroke:#181818;stroke-width:1.0;"/><polygon fill="#181818" points="54.5,198.87,58.5,189.87,54.5,193.87,50.5,189.87,54.5,198.87" style="stroke:#181818;stroke-width:1.0;"/></g><!--link repository to database--><g id="link_repository_database"><path d="M54.5,235.16 C54.5,251.69 54.5,270.78 54.5,288.72 " fill="none" id="repository-to-database" style="stroke:#181818;stroke-width:1.0;"/><polygon fill="#181818" points="54.5,294.72,58.5,285.72,54.5,289.72,50.5,285.72,54.5,294.72" style="stroke:#181818;stroke-width:1.0;"/></g><!--SRC=[AqfDBadCIyz9LL0AoYyjIIrMKaWiLYW2CxcA49B1gKLbcScfODbY21jPEYYr8ByuioI_g1AY7yxbIaaiIKnAB0QgSO6om2fWmbnS4BiKT7Nju0P3QR0Oab489bW6PWG0]--></g></svg>