<svg xmlns="http://www.w3.org/2000/svg" xmlns:xlink="http://www.w3.org/1999/xlink" contentStyleType="text/css" height="145px" preserveAspectRatio="none" style="width:313px;height:145px;background:#FFFFFF;" version="1.1" viewBox="0 0 313 145" width="313px" zoomAndPan="magnify"><defs/><g><!--entity stores--><g id="elem_stores"><rect fill="#F1F1F1" height="36.2969" rx="2.5" ry="2.5" style="stroke:#181818;stroke-width:0.5;" width="64.6045" x="7" y="103"/><text fill="#000000" font-family="sans-serif" font-size="14" lengthAdjust="spacing" textLength="44.6045" x="17" y="125.9951">Stores</text></g><!--entity products--><g id="elem_products"><rect fill="#F1F1F1" height="36.2969" rx="2.5" ry="2.5" style="stroke:#181818;stroke-width:0.5;" width="81.0039" x="107" y="103"/><text fill="#000000" font-family="sans-serif" font-size="14" lengthAdjust="spacing" textLength="61.0039" x="117" y="125.9951">Products</text></g><!--entity analytics--><g id="elem_analytics"><rect fill="#F1F1F1" height="36.2969" rx="2.5" ry="2.5" style="stroke:#181818;stroke-width:0.5;" width="83.5742" x="223.5" y="103"/><text fill="#000000" font-family="sans-serif" font-size="14" lengthAdjust="spacing" textLength="63.5742" x="233.5" y="125.9951">Analytics</text></g><!--entity landing--><g id="elem_landing"><rect fill="#F1F1F1" height="36.2969" rx="2.5" ry="2.5" style="stroke:#181818;stroke-width:0.5;" width="75.7881" x="109.5" y="7"/><text fill="#000000" font-family="sans-serif" font-size="14" lengthAdjust="spacing" textLength="55.7881" x="119.5" y="29.9951">Landing</text></g><!--link landing to products--><g id="link_landing_products"><path d="M147.5,49.24 C147.5,66.2 147.5,79.95 147.5,96.87 " fill="none" id="landing-products" style="stroke:#181818;stroke-width:1.0;"/><polygon fill="#181818" points="147.5,43.24,143.5,52.24,147.5,48.24,151.5,52.24,147.5,43.24" style="stroke:#181818;stroke-width:1.0;"/><polygon fill="#181818" points="147.5,102.87,151.5,93.87,147.5,97.87,143.5,93.87,147.5,102.87" style="stroke:#181818;stroke-width:1.0;"/></g><!--link landing to stores--><g id="link_landing_stores"><path d="M123.4143,46.9593 C103.9643,63.8893 83.3356,81.8506 63.8056,98.8506 " fill="none" id="landing-stores" style="stroke:#181818;stroke-width:1.0;"/><polygon fill="#181818" points="127.94,43.02,118.5253,45.9119,124.1686,46.3028,123.7777,51.9461,127.94,43.02" style="stroke:#181818;stroke-width:1.0;"/><polygon fill="#181818" points="59.28,102.79,68.6947,99.898,63.0514,99.5072,63.4422,93.8639,59.28,102.79" style="stroke:#181818;stroke-width:1.0;"/></g><!--link landing to analytics--><g id="link_landing_analytics"><path d="M173.5627,46.7587 C194.8127,63.6887 217.8571,82.0515 239.1971,99.0515 " fill="none" id="landing-analytics" style="stroke:#181818;stroke-width:1.0;"/><polygon fill="#181818" points="168.87,43.02,173.4166,51.7566,172.7806,46.1356,178.4016,45.4996,168.87,43.02" style="stroke:#181818;stroke-width:1.0;"/><polygon fill="#181818" points="243.89,102.79,239.3429,94.0536,239.9792,99.6746,234.3583,100.3109,243.89,102.79" style="stroke:#181818;stroke-width:1.0;"/></g><!--SRC=[AyxEp2j8B4hCLGXAJIv9p4lFILMevb9G2CelpKj9JN7EByfBBL8mCk2gvU8gWgjG2Yx9BqejLb98B5Oe1ZEH9GEAybDAaqiWqWLG3h82nxp4dCgIp6I8YaGO3rc9Js9UIcPUEbX13eJDnGLbADZewjeX34OHXRe6HGnk0G00]--></g></svg>